<svg width="24" height="25" viewBox="0 0 24 25" fill="none" xmlns="http://www.w3.org/2000/svg">
<g clip-path="url(#clip0_1337_9212)">
<path d="M6.55518 21.3838L10.8752 24.5L12.0227 22.91L7.96143 19.9813L6.55518 21.3838Z" fill="#F9B800"/>
<path d="M4.42148 14.9412L1.51523 17.8512C1.35773 18.0087 1.27148 18.215 1.27148 18.4325C1.27148 18.6537 1.35773 18.86 1.51523 19.0175L4.21523 21.7175C4.36898 21.8712 4.57898 21.9575 4.79648 21.9575C5.01773 21.9575 5.22398 21.8712 5.37773 21.7175L8.28398 18.8075L4.42148 14.9412ZM8.11898 6.46249L8.06648 6.45874L7.55273 7.71124L7.63523 7.73374C10.9165 8.63749 14.5915 12.3125 15.499 15.5937L15.5215 15.6762L16.774 15.1625L16.7702 15.11C16.5452 11.5325 11.6927 6.68374 8.11898 6.46249Z" fill="#F9B800"/>
<path d="M7.38393 8.285L7.32018 8.27L4.77393 14.4462L8.77893 18.4513L14.9552 15.905L14.9402 15.8412C14.1302 12.7025 10.5264 9.1025 7.38393 8.285ZM15.1914 8.4875C15.3114 8.4875 15.4239 8.4425 15.5102 8.35625L18.3677 5.49875C18.5439 5.3225 18.5439 5.0375 18.3677 4.86125C18.2814 4.775 18.1689 4.73 18.0489 4.73C17.9289 4.73 17.8164 4.775 17.7302 4.86125L14.8727 7.71875C14.7864 7.805 14.7414 7.9175 14.7414 8.0375C14.7414 8.1575 14.7864 8.27 14.8727 8.35625C14.9589 8.43875 15.0714 8.4875 15.1914 8.4875ZM22.7139 9.2975C22.6614 9.09875 22.4814 8.96375 22.2789 8.96375C22.2414 8.96375 22.2039 8.9675 22.1664 8.97875L17.6402 10.1675C17.4002 10.2312 17.2577 10.4788 17.3214 10.715C17.3739 10.9137 17.5502 11.0487 17.7564 11.0487C17.7939 11.0487 17.8352 11.045 17.8727 11.0338L22.3989 9.845C22.6352 9.78125 22.7777 9.5375 22.7139 9.2975ZM12.5139 5.9075C12.5514 5.91875 12.5889 5.9225 12.6302 5.9225C12.8327 5.9225 13.0127 5.78375 13.0652 5.58875L14.2539 1.0625C14.3177 0.8225 14.1752 0.575 13.9352 0.515C13.8939 0.50375 13.8564 0.5 13.8189 0.5C13.6127 0.5 13.4364 0.63875 13.3839 0.83375L12.1952 5.36C12.1314 5.6 12.2739 5.84375 12.5139 5.9075Z" fill="#F9B800"/>
</g>
<defs>
<clipPath id="clip0_1337_9212">
<rect width="24" height="24" fill="white" transform="translate(0 0.5)"/>
</clipPath>
</defs>
</svg>
