<svg width="21" height="20" viewBox="0 0 21 20" fill="none" xmlns="http://www.w3.org/2000/svg">
<path d="M9.3335 18.6665L1.8335 11.1665C1.16683 10.4998 1.16683 9.45817 1.8335 8.7915L9.3335 1.2915C10.0002 0.624837 11.0418 0.624837 11.7085 1.2915L19.2085 8.7915C19.8752 9.45817 19.8752 10.4998 19.2085 11.1665L11.7085 18.6665C11.0418 19.3332 9.9585 19.3332 9.3335 18.6665Z" fill="#F44336"/>
<path d="M9.5 13.6248C9.5 13.4998 9.54167 13.3748 9.58333 13.2498C9.625 13.1248 9.70833 13.0415 9.79167 12.9582C9.875 12.8748 10 12.7915 10.125 12.7498C10.25 12.7082 10.375 12.6665 10.5417 12.6665C10.7083 12.6665 10.8333 12.7082 10.9583 12.7498C11.0833 12.7915 11.2083 12.8748 11.2917 12.9582C11.375 13.0415 11.4583 13.1248 11.5 13.2498C11.5417 13.3748 11.5833 13.4998 11.5833 13.6248C11.5833 13.7498 11.5417 13.8748 11.5 13.9998C11.4583 14.1248 11.375 14.2082 11.2917 14.2915C11.2083 14.3748 11.0833 14.4582 10.9583 14.4998C10.8333 14.5415 10.7083 14.5832 10.5417 14.5832C10.375 14.5832 10.25 14.5415 10.125 14.4998C10 14.4582 9.91667 14.3748 9.79167 14.2915C9.70833 14.2082 9.625 14.1248 9.58333 13.9998C9.54167 13.8748 9.5 13.7915 9.5 13.6248ZM11.25 11.7082H9.75L9.54167 5.4165H11.4583L11.25 11.7082Z" fill="white"/>
</svg>
