<svg width="21" height="19" viewBox="0 0 21 19" fill="none" xmlns="http://www.w3.org/2000/svg">
<path d="M9.62924 0.772598L0.134241 17.2201C-0.248259 17.8876 0.231742 18.7276 1.00424 18.7276H19.9942C20.7667 18.7276 21.2467 17.8951 20.8642 17.2201L11.3692 0.772598C10.9792 0.105098 10.0192 0.105098 9.62924 0.772598Z" fill="#F9B800"/>
<path d="M9.44922 12.6453C9.45021 12.9237 9.56179 13.1904 9.75941 13.3866C9.85726 13.4838 9.97329 13.5607 10.1009 13.613C10.2284 13.6653 10.3651 13.692 10.503 13.6915C10.6409 13.691 10.7773 13.6634 10.9045 13.6102C11.0317 13.5569 11.1472 13.4792 11.2443 13.3813C11.3415 13.2835 11.4184 13.1675 11.4707 13.0399C11.523 12.9123 11.5497 12.7757 11.5492 12.6378V5.76777C11.5492 5.19027 11.0842 4.71777 10.4992 4.71777C9.92172 4.71777 9.44922 5.18277 9.44922 5.76777V12.6453ZM11.5492 15.6303C11.5492 15.9088 11.4386 16.1758 11.2417 16.3727C11.0448 16.5696 10.7777 16.6803 10.4992 16.6803C10.2207 16.6803 9.95367 16.5696 9.75676 16.3727C9.55984 16.1758 9.44922 15.9088 9.44922 15.6303C9.44922 15.3518 9.55984 15.0847 9.75676 14.8878C9.95367 14.6909 10.2207 14.5803 10.4992 14.5803C10.7777 14.5803 11.0448 14.6909 11.2417 14.8878C11.4386 15.0847 11.5492 15.3518 11.5492 15.6303Z" fill="black"/>
</svg>
