<svg width="25" height="25" viewBox="0 0 25 25" fill="none" xmlns="http://www.w3.org/2000/svg">
<path d="M23.4204 9.68973C22.9997 9.25 22.5644 8.79688 22.4003 8.39844C22.2485 8.03348 22.2396 7.42857 22.2307 6.84263C22.2139 5.75335 22.1961 4.51897 21.3378 3.66071C20.4796 2.80246 19.2452 2.7846 18.1559 2.76786C17.57 2.75893 16.9651 2.75 16.6001 2.59821C16.2028 2.43415 15.7485 1.99888 15.3088 1.57812C14.5387 0.83817 13.6637 0 12.4985 0C11.3334 0 10.4595 0.83817 9.68827 1.57812C9.24853 1.99888 8.79541 2.43415 8.39697 2.59821C8.03425 2.75 7.42711 2.75893 6.84117 2.76786C5.75188 2.7846 4.51751 2.80246 3.65925 3.66071C2.80099 4.51897 2.78871 5.75335 2.76639 6.84263C2.75746 7.42857 2.74853 8.03348 2.59675 8.39844C2.43269 8.79576 1.99742 9.25 1.57666 9.68973C0.836705 10.4598 -0.00146484 11.3348 -0.00146484 12.5C-0.00146484 13.6652 0.836705 14.5391 1.57666 15.3103C1.99742 15.75 2.43269 16.2031 2.59675 16.6016C2.74853 16.9665 2.75746 17.5714 2.76639 18.1574C2.78313 19.2467 2.80099 20.481 3.65925 21.3393C4.51751 22.1975 5.75188 22.2154 6.84117 22.2321C7.42711 22.2411 8.03202 22.25 8.39697 22.4018C8.79429 22.5658 9.24853 23.0011 9.68827 23.4219C10.4584 24.1618 11.3334 25 12.4985 25C13.6637 25 14.5376 24.1618 15.3088 23.4219C15.7485 23.0011 16.2017 22.5658 16.6001 22.4018C16.9651 22.25 17.57 22.2411 18.1559 22.2321C19.2452 22.2154 20.4796 22.1975 21.3378 21.3393C22.1961 20.481 22.2139 19.2467 22.2307 18.1574C22.2396 17.5714 22.2485 16.9665 22.4003 16.6016C22.5644 16.2042 22.9997 15.75 23.4204 15.3103C24.1604 14.5402 24.9985 13.6652 24.9985 12.5C24.9985 11.3348 24.1604 10.4609 23.4204 9.68973ZM11.6057 7.14286C11.6057 6.90606 11.6997 6.67896 11.8672 6.51151C12.0346 6.34407 12.2617 6.25 12.4985 6.25C12.7353 6.25 12.9624 6.34407 13.1299 6.51151C13.2973 6.67896 13.3914 6.90606 13.3914 7.14286V13.3929C13.3914 13.6297 13.2973 13.8568 13.1299 14.0242C12.9624 14.1916 12.7353 14.2857 12.4985 14.2857C12.2617 14.2857 12.0346 14.1916 11.8672 14.0242C11.6997 13.8568 11.6057 13.6297 11.6057 13.3929V7.14286ZM12.4985 18.75C12.2336 18.75 11.9747 18.6715 11.7545 18.5243C11.5342 18.3771 11.3626 18.168 11.2612 17.9232C11.1598 17.6785 11.1333 17.4092 11.185 17.1494C11.2367 16.8896 11.3642 16.651 11.5515 16.4637C11.7388 16.2764 11.9775 16.1488 12.2373 16.0972C12.497 16.0455 12.7663 16.072 13.0111 16.1734C13.2558 16.2747 13.4649 16.4464 13.6121 16.6666C13.7593 16.8869 13.8378 17.1458 13.8378 17.4107C13.8378 17.7659 13.6967 18.1066 13.4456 18.3577C13.1944 18.6089 12.8537 18.75 12.4985 18.75Z" fill="#60935D"/>
</svg>
