<?xml version="1.0" standalone="no"?>
<!DOCTYPE svg PUBLIC "-//W3C//DTD SVG 20010904//EN"
 "http://www.w3.org/TR/2001/REC-SVG-20010904/DTD/svg10.dtd">
<svg version="1.0" xmlns="http://www.w3.org/2000/svg"
 width="500.000000pt" height="500.000000pt" viewBox="0 0 500.000000 500.000000"
 preserveAspectRatio="xMidYMid meet">

<g transform="translate(0.000000,500.000000) scale(0.100000,-0.100000)"
fill="#000000" stroke="none">
<path d="M3431 4634 c0 -11 3 -14 6 -6 3 7 2 16 -1 19 -3 4 -6 -2 -5 -13z"/>
<path d="M3621 4554 c0 -11 3 -14 6 -6 3 7 2 16 -1 19 -3 4 -6 -2 -5 -13z"/>
<path d="M2364 4381 c-43 -26 -73 -68 -80 -111 l-6 -37 -49 5 c-43 4 -51 1
-79 -26 -37 -37 -40 -92 -10 -152 11 -22 17 -40 13 -40 -9 0 19 -20 28 -20 3
0 11 18 18 40 31 105 178 181 291 150 62 -17 135 -90 151 -152 l13 -47 23 32
c29 39 31 97 3 122 -15 14 -18 26 -14 59 8 53 -12 71 -73 70 -41 -1 -43 0 -43
29 0 20 -11 40 -34 63 -28 28 -41 34 -77 34 -25 0 -57 -8 -75 -19z"/>
<path d="M3814 4364 c-18 -14 -18 -15 4 -4 12 6 22 13 22 15 0 8 -5 6 -26 -11z"/>
<path d="M3769 4333 c-13 -16 -12 -17 4 -4 16 13 21 21 13 21 -2 0 -10 -8 -17
-17z"/>
<path d="M3357 4299 c12 -15 73 -53 73 -46 0 2 -19 17 -42 32 -24 16 -38 22
-31 14z"/>
<path d="M3453 4239 c18 -10 17 -13 -14 -45 l-33 -34 29 -28 29 -27 -24 28
-24 27 35 36 c28 29 31 36 19 44 -8 5 -19 10 -25 10 -5 -1 -2 -5 8 -11z"/>
<path d="M3573 4235 c4 -5 0 -20 -10 -34 -9 -14 -23 -37 -31 -51 l-14 -25 20
24 c39 48 53 79 40 87 -7 4 -10 3 -5 -1z"/>
<path d="M3272 4200 c0 -14 2 -19 5 -12 2 6 2 18 0 25 -3 6 -5 1 -5 -13z"/>
<path d="M3730 4149 l0 -41 -44 6 c-40 6 -46 5 -56 -16 -10 -21 -10 -21 3 -5
11 13 23 16 59 11 l46 -6 3 46 c2 25 1 46 -3 46 -5 0 -8 -19 -8 -41z"/>
<path d="M3283 4110 c0 -36 2 -50 4 -32 2 17 2 47 0 65 -2 17 -4 3 -4 -33z"/>
<path d="M3270 4025 c0 -8 4 -15 10 -15 5 0 7 7 4 15 -4 8 -8 15 -10 15 -2 0
-4 -7 -4 -15z"/>
<path d="M2461 4014 c0 -11 3 -14 6 -6 3 7 2 16 -1 19 -3 4 -6 -2 -5 -13z"/>
<path d="M3407 4023 c6 -5 14 -29 16 -53 l4 -45 -1 49 c-1 35 -5 51 -16 53
-10 3 -11 2 -3 -4z"/>
<path d="M2097 4002 c-22 -24 -21 -65 1 -85 26 -24 36 -21 12 3 -11 11 -20 29
-20 40 0 11 9 29 20 40 11 11 16 20 12 20 -5 0 -16 -8 -25 -18z"/>
<path d="M2551 4017 c2 -1 15 -11 29 -22 l25 -20 -19 23 c-11 12 -24 22 -29
22 -6 0 -8 -1 -6 -3z"/>
<path d="M3318 4013 c12 -2 30 -2 40 0 9 3 -1 5 -23 4 -22 0 -30 -2 -17 -4z"/>
<path d="M2671 3987 c2 -1 13 -9 24 -17 19 -14 19 -14 6 3 -7 9 -18 17 -24 17
-6 0 -8 -1 -6 -3z"/>
<path d="M2352 3960 c0 -14 2 -19 5 -12 2 6 2 18 0 25 -3 6 -5 1 -5 -13z"/>
<path d="M2250 3955 c0 -10 7 -15 18 -13 21 4 19 22 -2 26 -10 2 -16 -3 -16
-13z"/>
<path d="M2520 3955 c0 -10 7 -15 18 -13 21 4 19 22 -2 26 -10 2 -16 -3 -16
-13z"/>
<path d="M3501 3941 c-19 -19 -19 -22 -4 -88 20 -87 52 -167 99 -246 44 -72
178 -211 213 -220 21 -5 23 -3 18 22 -3 15 0 39 7 53 12 23 12 25 -3 21 -25
-6 -132 112 -181 200 -36 64 -67 149 -84 229 -9 40 -40 54 -65 29z"/>
<path d="M2460 3938 c0 -9 -6 -19 -12 -21 -10 -4 -10 -6 0 -6 14 -1 28 26 18
36 -3 4 -6 -1 -6 -9z"/>
<path d="M4038 3923 c18 -2 45 -2 60 0 15 2 0 4 -33 4 -33 0 -45 -2 -27 -4z"/>
<path d="M4168 3913 c6 -2 18 -2 25 0 6 3 1 5 -13 5 -14 0 -19 -2 -12 -5z"/>
<path d="M2171 3903 c21 -5 52 -67 60 -118 l6 -40 1 36 c2 45 -42 130 -66 128
-15 -1 -15 -2 -1 -6z"/>
<path d="M2635 3880 c-3 -6 1 -7 9 -4 18 7 21 14 7 14 -6 0 -13 -4 -16 -10z"/>
<path d="M2402 3861 c-21 -13 -10 -46 16 -49 27 -4 40 22 22 43 -14 17 -20 18
-38 6z"/>
<path d="M2580 3805 c-18 -19 -32 -36 -29 -38 2 -2 19 14 38 35 42 48 36 50
-9 3z"/>
<path d="M2925 3794 c-22 -8 -46 -17 -54 -19 -8 -3 -12 -8 -9 -10 6 -6 99 24
113 36 13 13 -2 10 -50 -7z"/>
<path d="M2270 3776 c17 -21 70 -49 78 -42 3 3 1 6 -5 6 -6 0 -28 12 -49 26
-21 15 -32 19 -24 10z"/>
<path d="M2480 3750 c-19 -11 -31 -19 -27 -20 11 0 67 29 67 35 0 7 -1 7 -40
-15z"/>
<path d="M2563 3715 c0 -22 2 -30 4 -17 2 12 2 30 0 40 -3 9 -5 -1 -4 -23z"/>
<path d="M2378 3723 c12 -2 32 -2 45 0 12 2 2 4 -23 4 -25 0 -35 -2 -22 -4z"/>
<path d="M2232 3690 c0 -14 2 -19 5 -12 2 6 2 18 0 25 -3 6 -5 1 -5 -13z"/>
<path d="M2551 3645 c-1 -24 -37 -84 -60 -103 -14 -11 -13 -12 6 -2 13 6 30
24 39 41 15 29 18 31 56 25 23 -4 45 -9 50 -12 5 -3 -10 -26 -32 -52 -22 -25
-54 -75 -71 -110 l-31 -64 -32 31 c-42 41 -87 50 -114 23 -11 -11 -25 -28 -30
-38 -10 -18 -12 -18 -28 6 -24 36 -192 200 -204 200 -6 0 31 -42 83 -92 51
-51 105 -109 119 -128 l25 -34 18 34 c32 63 67 66 125 14 43 -39 54 -38 65 3
10 40 68 133 107 170 l33 32 74 -29 c41 -16 76 -28 78 -26 7 7 -102 48 -183
69 -66 17 -84 26 -87 42 -4 20 -4 20 -6 0z"/>
<path d="M2162 3639 c-79 -9 -256 -48 -249 -55 2 -3 42 5 88 16 46 11 116 23
156 27 l72 6 47 -49 c37 -39 39 -41 10 -6 -20 23 -36 49 -36 57 0 8 -3 14 -7
14 -5 -1 -41 -5 -81 -10z"/>
<path d="M1860 3570 c-18 -12 -2 -12 25 0 13 6 15 9 5 9 -8 0 -22 -4 -30 -9z"/>
<path d="M1810 3550 c-8 -5 -10 -10 -5 -10 6 0 17 5 25 10 8 5 11 10 5 10 -5
0 -17 -5 -25 -10z"/>
<path d="M1695 3497 c-44 -23 -102 -58 -130 -77 -107 -73 -281 -260 -351 -375
-27 -46 -12 -28 55 62 131 177 266 297 436 385 49 26 86 47 80 47 -5 0 -46
-19 -90 -42z"/>
<path d="M2393 3513 c9 -2 25 -2 35 0 9 3 1 5 -18 5 -19 0 -27 -2 -17 -5z"/>
<path d="M4058 3503 c6 -2 18 -2 25 0 6 3 1 5 -13 5 -14 0 -19 -2 -12 -5z"/>
<path d="M4128 3493 c7 -3 16 -2 19 1 4 3 -2 6 -13 5 -11 0 -14 -3 -6 -6z"/>
<path d="M4188 3470 c17 -11 32 -21 32 -22 1 -16 29 -78 30 -65 1 40 -53 107
-85 107 -5 0 5 -9 23 -20z"/>
<path d="M3942 3471 c-8 -5 -12 -16 -10 -25 2 -12 6 -10 15 9 6 14 10 25 10
25 -1 0 -8 -4 -15 -9z"/>
<path d="M3012 3394 c37 -38 84 -94 104 -124 42 -65 114 -205 139 -272 10 -27
19 -48 21 -48 5 0 127 79 133 87 10 11 -43 -19 -87 -49 l-43 -29 -11 32 c-19
54 -107 228 -140 277 -46 68 -90 119 -140 160 -29 24 -21 13 24 -34z"/>
<path d="M4049 3423 c-13 -16 -12 -17 4 -4 16 13 21 21 13 21 -2 0 -10 -8 -17
-17z"/>
<path d="M4122 3370 c-9 -16 -20 -30 -24 -30 -3 0 8 -16 25 -35 25 -29 37 -35
66 -34 l36 2 -40 6 c-29 4 -43 13 -55 34 -14 25 -13 30 2 57 9 17 15 30 12 30
-3 0 -13 -13 -22 -30z"/>
<path d="M3969 3377 c7 -10 26 -17 41 -17 16 0 30 -7 34 -15 3 -8 13 -15 23
-15 15 0 14 3 -5 16 -12 8 -22 22 -22 30 0 12 -3 12 -20 2 -16 -10 -24 -10
-42 1 -21 13 -22 13 -9 -2z"/>
<path d="M3832 3350 c0 -14 2 -19 5 -12 2 6 2 18 0 25 -3 6 -5 1 -5 -13z"/>
<path d="M2408 3310 c-9 -58 2 -716 12 -755 10 -36 10 262 1 580 -4 141 -9
204 -13 175z"/>
<path d="M4002 3308 c-32 -32 -10 -57 106 -118 34 -18 61 -38 59 -44 -2 -6
-25 -26 -51 -43 -27 -18 -44 -33 -39 -33 11 0 51 27 83 56 l25 23 105 -65
c263 -164 307 -224 298 -397 -3 -65 -10 -97 -31 -140 -56 -112 -146 -165 -435
-252 -324 -97 -449 -161 -587 -300 -163 -163 -222 -361 -154 -515 65 -147 233
-199 427 -134 42 14 121 47 177 74 140 68 139 68 162 23 16 -34 92 -103 113
-103 5 0 -4 25 -21 56 -16 31 -29 67 -29 80 0 22 4 24 48 24 66 0 92 29 56 64
-9 10 -33 16 -60 16 -33 0 -44 4 -44 15 0 29 31 90 62 123 30 30 28 39 -6 26
-9 -3 -14 -10 -11 -14 3 -5 -6 -25 -20 -45 -13 -20 -27 -52 -31 -71 -3 -19
-12 -34 -19 -34 -7 0 -20 -3 -29 -6 -41 -16 5 89 56 130 18 14 28 26 22 26
-23 0 -93 -88 -100 -125 -3 -20 -14 -39 -23 -42 -14 -5 -167 -66 -198 -80 -8
-3 -13 11 -16 44 l-3 48 -2 -52 c-2 -50 -4 -54 -39 -72 -130 -66 -284 -67
-357 -3 -59 53 -75 200 -33 302 47 114 125 201 256 288 106 70 190 105 448
188 241 77 327 117 392 182 134 134 158 375 53 526 -30 44 -133 125 -281 221
-89 58 -101 69 -95 88 6 21 6 21 -9 3 -14 -19 -17 -18 -95 27 -84 49 -110 55
-130 35z m198 -1835 c0 -10 9 -37 20 -60 10 -24 15 -43 11 -43 -29 0 -98 91
-85 112 3 4 16 8 30 8 16 0 24 -6 24 -17z"/>
<path d="M4242 3290 c0 -14 2 -19 5 -12 2 6 2 18 0 25 -3 6 -5 1 -5 -13z"/>
<path d="M3832 3255 c0 -16 2 -22 5 -12 2 9 2 23 0 30 -3 6 -5 -1 -5 -18z"/>
<path d="M1888 3228 c-23 -54 -15 -61 11 -9 23 44 25 51 14 51 -5 0 -16 -19
-25 -42z"/>
<path d="M2790 3235 c1 -16 40 -58 47 -51 4 4 -5 19 -20 34 -15 14 -27 22 -27
17z"/>
<path d="M1913 3196 c-32 -33 -28 -41 7 -16 17 12 30 26 30 31 0 15 -14 10
-37 -15z"/>
<path d="M3819 3197 c-5 -22 -2 -30 15 -39 11 -6 32 -20 45 -32 23 -20 23 -20
13 -1 -6 12 -22 27 -36 34 -15 8 -26 24 -28 40 l-3 26 -6 -28z"/>
<path d="M2750 3204 c0 -10 34 -33 49 -34 8 0 2 9 -12 20 -26 21 -37 25 -37
14z"/>
<path d="M3705 3165 l-40 -14 40 6 c22 3 49 9 60 14 l20 8 -20 0 c-11 0 -38
-7 -60 -14z"/>
<path d="M2367 3143 c-11 -10 -8 -43 3 -43 6 0 10 11 10 25 0 26 -2 29 -13 18z"/>
<path d="M3615 3135 c-25 -12 -26 -14 -5 -9 28 7 60 23 45 23 -5 0 -23 -6 -40
-14z"/>
<path d="M2970 3086 c0 -19 -9 -87 -20 -151 -11 -64 -20 -122 -19 -128 1 -23
16 30 28 98 7 39 26 96 43 128 33 65 32 91 -2 30 l-21 -38 5 48 c3 27 2 47 -4
47 -6 0 -10 -15 -10 -34z"/>
<path d="M3540 3105 c-14 -8 -20 -14 -15 -14 6 0 21 6 35 14 14 8 21 14 15 14
-5 0 -21 -6 -35 -14z"/>
<path d="M1775 3020 c-32 -39 -70 -71 -108 -90 -112 -59 -153 -110 -197 -245
-13 -38 -33 -91 -47 -117 -13 -27 -21 -48 -18 -48 9 0 52 94 75 165 29 89 52
134 82 162 32 30 178 113 199 113 12 0 18 -12 23 -42 11 -66 67 -300 72 -295
2 2 -12 73 -31 158 -20 85 -38 165 -41 177 -3 17 -10 22 -21 18 -9 -4 5 16 30
43 26 28 47 53 47 56 0 15 -20 -2 -65 -55z"/>
<path d="M3968 3053 c6 -2 18 -2 25 0 6 3 1 5 -13 5 -14 0 -19 -2 -12 -5z"/>
<path d="M1175 2980 c-9 -16 -13 -30 -11 -30 3 0 12 14 21 30 9 17 13 30 11
30 -3 0 -12 -13 -21 -30z"/>
<path d="M3885 2981 c-3 -11 -26 -49 -51 -83 -28 -39 -33 -50 -14 -28 38 42
84 119 77 126 -3 3 -8 -4 -12 -15z"/>
<path d="M2125 2940 c-31 -45 -69 -76 -140 -114 -40 -22 -44 -26 -20 -21 45 9
135 74 169 122 16 24 27 45 24 48 -3 3 -17 -13 -33 -35z"/>
<path d="M2670 2940 c0 -26 57 -115 95 -149 21 -18 57 -42 81 -54 25 -12 43
-26 40 -33 -3 -7 -7 -30 -10 -51 -3 -21 3 -7 13 30 11 38 21 70 23 72 2 2 32
-19 67 -46 35 -27 102 -69 149 -92 l85 -42 117 0 117 0 85 42 c65 33 105 62
174 129 l89 86 -90 -82 c-62 -57 -114 -94 -174 -123 l-84 -42 -116 0 c-113 0
-118 1 -191 36 -41 20 -109 61 -150 92 -80 61 -90 65 -90 42 0 -23 -29 -18
-80 15 -60 38 -83 63 -119 130 -17 30 -31 48 -31 40z"/>
<path d="M1124 2889 c-14 -28 -24 -53 -22 -55 2 -2 16 21 31 51 15 30 25 55
22 55 -3 0 -16 -23 -31 -51z"/>
<path d="M2360 2916 c0 -14 5 -28 10 -31 6 -4 10 7 10 24 0 17 -4 31 -10 31
-5 0 -10 -11 -10 -24z"/>
<path d="M3266 2900 c-20 -22 -36 -45 -36 -51 0 -7 18 8 40 32 l40 44 -15 -37
c-19 -48 -19 -71 1 -35 17 32 26 87 14 87 -4 0 -24 -18 -44 -40z"/>
<path d="M3331 2878 c0 -27 4 -48 9 -48 11 0 11 21 0 65 -7 27 -8 25 -9 -17z"/>
<path d="M1360 2865 c0 -8 61 -37 67 -31 3 2 -9 12 -26 20 -31 17 -41 19 -41
11z"/>
<path d="M1356 2825 c23 -7 54 -21 68 -30 17 -11 26 -13 26 -6 0 16 -78 51
-110 50 -19 -1 -16 -4 16 -14z"/>
<path d="M1066 2765 c-9 -26 -7 -32 5 -12 6 10 9 21 6 23 -2 3 -7 -2 -11 -11z"/>
<path d="M2372 2740 c0 -14 2 -19 5 -12 2 6 2 18 0 25 -3 6 -5 1 -5 -13z"/>
<path d="M1913 2714 c-36 -36 -22 -40 17 -4 18 16 27 30 21 30 -7 0 -23 -12
-38 -26z"/>
<path d="M1046 2715 c-9 -26 -7 -32 5 -12 6 10 9 21 6 23 -2 3 -7 -2 -11 -11z"/>
<path d="M1005 2600 c-25 -76 -37 -191 -21 -207 3 -4 6 25 6 64 0 48 8 92 25
143 14 40 23 75 21 77 -2 2 -16 -32 -31 -77z"/>
<path d="M1861 2604 c-2 -27 32 -102 60 -130 l30 -31 -6 -124 c-6 -95 -11
-127 -23 -136 -14 -12 -14 -13 2 -13 16 0 17 -9 11 -107 -12 -209 -25 -610
-25 -768 l0 -159 -47 46 c-164 158 -376 119 -486 -90 -54 -101 -70 -183 -65
-327 5 -145 29 -218 92 -281 93 -94 226 -82 373 34 57 46 125 141 150 213 10
27 21 49 25 49 4 0 17 -22 29 -49 30 -70 61 -96 112 -95 50 1 99 24 145 68 55
51 79 111 104 261 19 118 14 645 -9 903 -21 230 -27 211 70 211 l57 0 0 -97
c0 -266 43 -992 66 -1112 28 -149 81 -204 195 -205 85 0 121 38 153 163 29
111 36 210 36 536 1 352 -5 427 -66 850 -28 192 -34 253 -25 265 22 30 51 96
50 116 0 11 -8 -5 -19 -35 -10 -30 -30 -64 -44 -76 -13 -12 -23 -24 -20 -26 2
-3 -11 -3 -29 -1 -27 3 -29 2 -12 -7 16 -8 12 -9 -18 -5 -21 4 -104 3 -185 -2
-117 -6 -137 -9 -97 -14 28 -4 -15 -5 -95 -3 -80 2 -197 5 -262 6 -64 2 -114
6 -112 10 2 4 -4 9 -14 12 -31 10 -61 49 -81 107 -11 30 -20 49 -20 43z m772
-171 c-13 -2 -33 -2 -45 0 -13 2 -3 4 22 4 25 0 35 -2 23 -4z m-430 -20 c-24
-2 -62 -2 -85 0 -24 2 -5 4 42 4 47 0 66 -2 43 -4z m-427 -1176 c54 -28 120
-104 144 -165 84 -218 -19 -489 -228 -600 -140 -75 -257 -41 -322 92 -88 182
-49 462 87 607 68 74 109 91 208 86 48 -2 92 -10 111 -20z"/>
<path d="M1591 1059 c-87 -45 -150 -178 -138 -295 7 -73 49 -157 94 -192 49
-37 123 -38 172 -3 70 50 131 190 131 300 0 156 -133 254 -259 190z m159 -21
c54 -37 75 -89 74 -183 0 -100 -30 -181 -88 -243 -79 -83 -170 -64 -230 46
-54 101 -43 232 27 323 60 78 150 102 217 57z"/>
<path d="M1638 945 c-82 -45 -98 -187 -28 -257 53 -53 117 -26 155 66 53 127
-26 246 -127 191z"/>
<path d="M1375 2484 c-9 -15 -12 -23 -6 -20 11 7 35 46 28 46 -3 0 -12 -12
-22 -26z"/>
<path d="M1305 2399 c-59 -59 -134 -107 -144 -91 -4 6 -11 1 -17 -13 l-12 -24
57 29 c54 29 84 53 145 118 48 52 25 37 -29 -19z"/>
<path d="M878 2383 c7 -3 16 -2 19 1 4 3 -2 6 -13 5 -11 0 -14 -3 -6 -6z"/>
<path d="M1053 2376 c26 -8 59 -22 74 -31 14 -9 22 -12 19 -6 -11 18 -58 39
-101 45 -38 5 -37 5 8 -8z"/>
<path d="M828 2373 c7 -3 16 -2 19 1 4 3 -2 6 -13 5 -11 0 -14 -3 -6 -6z"/>
<path d="M754 2344 c-18 -14 -18 -14 6 -3 31 14 36 19 24 19 -6 0 -19 -7 -30
-16z"/>
<path d="M869 2253 c-13 -35 -5 -92 16 -112 14 -14 14 -10 -1 22 -15 31 -16
45 -7 77 12 46 7 53 -8 13z"/>
<path d="M986 2251 c-13 -15 -16 -28 -11 -52 5 -22 10 -28 15 -18 7 11 21 11
72 2 99 -17 174 -57 251 -135 78 -79 110 -87 115 -31 3 28 -5 40 -61 96 -61
60 -154 116 -219 132 -16 4 -28 11 -28 16 0 5 -26 9 -58 9 -46 0 -63 -4 -76
-19z"/>
<path d="M655 2242 c-6 -5 -37 -19 -70 -31 -217 -80 -397 -276 -440 -479 -38
-177 1 -360 104 -489 50 -63 83 -87 110 -78 41 13 35 42 -19 102 -213 233
-156 595 123 785 71 49 163 92 177 83 6 -4 10 8 10 29 0 19 4 46 10 60 10 28
9 31 -5 18z"/>
<path d="M745 2239 c-4 -6 -5 -12 -2 -15 2 -3 7 2 10 11 7 17 1 20 -8 4z"/>
<path d="M731 2187 c-1 -26 23 -87 35 -87 2 0 -1 10 -7 23 -7 12 -16 38 -20
57 -6 32 -7 32 -8 7z"/>
<path d="M913 2082 c4 -16 -1 -30 -14 -43 -10 -10 -15 -19 -10 -19 6 0 16 9
24 20 11 16 21 19 41 14 27 -6 56 9 56 30 0 6 -5 3 -11 -6 -14 -25 -44 -22
-70 5 l-22 22 6 -23z"/>
<path d="M660 2076 c0 -16 42 -76 60 -86 32 -17 34 -11 5 12 -15 12 -36 35
-46 52 -10 17 -19 27 -19 22z"/>
<path d="M805 2037 c11 -26 11 -37 3 -45 -8 -8 -9 -12 -1 -12 13 0 25 28 17
41 -3 6 6 8 23 4 15 -3 21 -2 13 1 -8 4 -27 15 -42 26 l-27 19 14 -34z"/>
<path d="M4528 2063 c28 -2 76 -2 105 0 28 2 5 3 -53 3 -58 0 -81 -1 -52 -3z"/>
<path d="M4303 2053 c32 -2 81 -2 110 0 29 2 3 3 -58 3 -60 0 -84 -1 -52 -3z"/>
<path d="M4747 2053 c18 -2 50 -2 70 0 21 2 7 4 -32 4 -38 0 -55 -2 -38 -4z"/>
<path d="M1490 2018 l-35 -30 37 26 c36 25 38 26 55 8 37 -37 56 -45 23 -9
-19 20 -37 37 -40 37 -3 0 -21 -14 -40 -32z"/>
<path d="M1631 2019 c-6 -18 -9 -34 -7 -36 2 -2 9 10 15 28 6 18 9 34 7 36 -2
2 -9 -10 -15 -28z"/>
<path d="M4040 2039 c-170 -19 -92 -19 125 1 l80 7 -65 0 c-36 0 -99 -3 -140
-8z"/>
<path d="M3892 1953 l2 -68 3 60 c2 33 10 63 16 67 8 5 6 8 -5 8 -16 0 -18 -9
-16 -67z"/>
<path d="M1315 1879 c-26 -44 -45 -82 -43 -84 9 -7 48 -25 55 -25 4 1 -5 8
-20 16 l-28 15 19 32 c48 79 74 127 69 127 -3 0 -26 -36 -52 -81z"/>
<path d="M1511 1784 c0 -11 3 -14 6 -6 3 7 2 16 -1 19 -3 4 -6 -2 -5 -13z"/>
<path d="M4828 1430 c-2 -204 0 -370 5 -370 4 0 7 167 7 370 0 204 -2 370 -5
370 -2 0 -6 -167 -7 -370z"/>
<path d="M1350 1760 c12 -8 12 -11 -3 -28 -9 -10 -17 -22 -17 -27 0 -4 9 4 21
19 20 26 19 46 -4 46 -7 0 -6 -4 3 -10z"/>
<path d="M1515 1750 c3 -4 14 -10 25 -13 11 -3 18 -2 15 3 -3 4 -14 10 -25 13
-11 3 -18 2 -15 -3z"/>
<path d="M4328 1753 c12 -2 32 -2 45 0 12 2 2 4 -23 4 -25 0 -35 -2 -22 -4z"/>
<path d="M4433 1734 l27 -15 -25 -33 c-14 -18 -25 -37 -25 -42 0 -5 11 8 25
29 14 20 32 37 40 37 14 0 52 -45 75 -90 19 -36 17 -129 -5 -170 -22 -44 -64
-90 -83 -90 -7 0 -20 -7 -28 -15 -9 -8 -13 -15 -9 -15 15 0 53 25 88 59 104
99 75 275 -55 342 -44 22 -66 25 -25 3z"/>
<path d="M1114 1635 c-23 -19 -49 -47 -59 -62 -12 -19 -2 -13 31 19 27 26 58
54 69 63 11 8 16 14 10 14 -5 1 -29 -15 -51 -34z"/>
<path d="M1650 1634 c0 -6 16 -28 36 -50 l35 -39 -27 40 c-38 54 -44 61 -44
49z"/>
<path d="M4396 1615 c-3 -9 -6 -24 -5 -33 0 -9 5 -4 10 12 9 32 6 48 -5 21z"/>
<path d="M1690 1616 c0 -3 9 -10 20 -16 11 -6 20 -8 20 -6 0 3 -9 10 -20 16
-11 6 -20 8 -20 6z"/>
<path d="M1750 1580 c8 -5 20 -10 25 -10 6 0 3 5 -5 10 -8 5 -19 10 -25 10 -5
0 -3 -5 5 -10z"/>
<path d="M4382 1530 c0 -14 2 -19 5 -12 2 6 2 18 0 25 -3 6 -5 1 -5 -13z"/>
<path d="M1363 1490 c0 -30 2 -43 4 -27 2 15 2 39 0 55 -2 15 -4 2 -4 -28z"/>
<path d="M3902 1310 c0 -19 2 -27 5 -17 2 9 2 25 0 35 -3 9 -5 1 -5 -18z"/>
<path d="M4333 1323 c15 -2 39 -2 55 0 15 2 2 4 -28 4 -30 0 -43 -2 -27 -4z"/>
<path d="M3912 1200 c0 -19 2 -27 5 -17 2 9 2 25 0 35 -3 9 -5 1 -5 -18z"/>
<path d="M443 1190 c-53 -21 -57 -88 -9 -136 47 -47 62 -44 76 14 6 27 18 62
26 78 14 26 14 30 -2 41 -20 15 -59 16 -91 3z"/>
<path d="M3921 1114 c0 -11 3 -14 6 -6 3 7 2 16 -1 19 -3 4 -6 -2 -5 -13z"/>
<path d="M4175 1068 c-44 -5 -93 -13 -110 -18 -24 -8 -20 -9 20 -4 28 4 142
12 255 19 l205 12 -145 0 c-80 0 -181 -4 -225 -9z"/>
<path d="M4648 1063 c28 -2 76 -2 105 0 28 2 5 3 -53 3 -58 0 -81 -1 -52 -3z"/>
<path d="M836 1053 c-3 -4 -6 -46 -6 -95 0 -86 0 -88 -20 -76 -11 7 -42 42
-67 77 -26 35 -49 58 -51 52 -7 -20 128 -181 152 -181 3 0 7 43 8 95 l3 95 70
-56 c39 -31 79 -60 90 -64 15 -5 8 -9 -28 -14 -61 -9 -52 -25 10 -18 27 2 50
6 51 8 2 1 -1 28 -8 58 -12 60 -35 80 -24 21 3 -19 3 -35 0 -35 -4 0 -45 31
-90 70 -46 38 -86 66 -90 63z"/>
<path d="M4008 1033 c7 -3 16 -2 19 1 4 3 -2 6 -13 5 -11 0 -14 -3 -6 -6z"/>
<path d="M3978 663 c17 -2 47 -2 65 0 17 2 3 4 -33 4 -36 0 -50 -2 -32 -4z"/>
<path d="M2787 620 c-80 -21 -152 -81 -163 -138 l-6 -32 164 0 c91 0 199 3
241 6 72 7 77 8 77 30 0 31 -53 90 -102 115 -46 23 -154 33 -211 19z"/>
<path d="M1936 575 c-42 -15 -100 -65 -121 -106 -14 -26 -14 -26 32 -33 78
-10 393 -7 393 4 0 48 -62 120 -119 139 -46 15 -137 13 -185 -4z"/>
<path d="M3400 580 c-166 -5 -132 -6 175 -6 209 -1 454 2 545 6 131 5 96 6
-175 6 -187 0 -432 -3 -545 -6z"/>
<path d="M3575 520 c-147 -9 248 -9 485 -1 179 7 176 7 -100 7 -157 0 -330 -3
-385 -6z"/>
<path d="M607 493 c24 -2 62 -2 86 0 23 2 4 4 -43 4 -47 0 -66 -2 -43 -4z"/>
<path d="M442 453 c32 -2 84 -2 115 0 32 2 6 3 -57 3 -63 0 -89 -1 -58 -3z"/>
<path d="M1128 353 c34 -2 90 -2 125 0 34 2 6 3 -63 3 -69 0 -97 -1 -62 -3z"/>
</g>
</svg>
